<?xml version="1.0" standalone="no"?>
<!DOCTYPE svg PUBLIC "-//W3C//DTD SVG 20010904//EN"
 "http://www.w3.org/TR/2001/REC-SVG-20010904/DTD/svg10.dtd">
<svg version="1.0" xmlns="http://www.w3.org/2000/svg"
 width="1200.000000pt" height="1200.000000pt" viewBox="0 0 1200.000000 1200.000000"
 preserveAspectRatio="xMidYMid meet">
<metadata>
Created by potrace 1.14, written by Peter Selinger 2001-2017
</metadata>
<g transform="translate(0.000000,1200.000000) scale(0.100000,-0.100000)"
fill="#000000" stroke="none">
<path d="M3868 6844 c-3 -2 -54 -6 -114 -9 -105 -5 -136 -7 -254 -21 -30 -3
-73 -8 -95 -9 -22 -2 -40 -5 -40 -5 0 -3 -40 -10 -75 -14 -19 -2 -62 -9 -95
-17 -33 -7 -64 -12 -69 -10 -4 1 -14 -4 -22 -10 -8 -6 -14 -9 -14 -6 0 3 -16
1 -36 -5 -20 -5 -45 -11 -55 -13 -26 -5 -166 -53 -209 -71 -101 -43 -205 -106
-260 -156 -35 -32 -100 -113 -100 -125 0 -5 -9 -19 -20 -31 -12 -12 -19 -22
-16 -22 3 0 -8 -26 -23 -57 -47 -94 -92 -235 -129 -403 -10 -44 -21 -103 -27
-147 -2 -12 -6 -34 -9 -50 -6 -31 -17 -116 -22 -178 -10 -105 -13 -149 -18
-264 -4 -68 -8 -127 -11 -131 -3 -5 -1 -11 4 -14 5 -3 6 -21 2 -38 -3 -18 -5
-51 -4 -73 1 -22 4 -103 7 -179 3 -77 8 -160 10 -185 6 -47 15 -133 21 -186 2
-16 6 -41 9 -55 3 -14 7 -43 10 -65 2 -22 7 -51 10 -65 3 -14 8 -36 10 -50 3
-20 21 -98 40 -175 9 -38 29 -102 38 -124 6 -14 12 -31 13 -36 5 -24 51 -123
77 -168 15 -26 28 -51 28 -54 0 -10 81 -105 114 -133 47 -41 120 -89 128 -83
5 2 8 0 8 -5 0 -16 193 -91 325 -127 54 -15 77 -21 165 -40 14 -3 39 -7 55
-10 17 -2 39 -6 50 -8 11 -3 40 -8 65 -11 25 -3 54 -8 66 -10 11 -2 54 -7 95
-11 41 -4 92 -9 114 -11 35 -3 195 -11 360 -17 28 -2 62 1 78 5 16 4 27 3 27
-3 0 -6 4 -8 10 -4 5 3 62 8 127 11 160 6 230 11 283 19 25 4 66 8 91 10 25 1
54 5 65 8 10 3 35 8 54 11 59 10 200 38 253 52 9 2 25 6 35 8 124 31 307 109
397 171 115 78 186 175 266 360 18 41 69 207 69 224 0 10 3 21 7 25 4 3 8 14
9 24 1 9 9 51 17 92 9 41 18 93 21 115 4 23 8 51 11 64 2 13 7 49 10 80 4 31
8 63 10 71 7 25 19 219 19 307 1 46 3 83 6 83 11 0 -10 523 -25 600 -2 14 -7
52 -10 85 -3 33 -7 71 -10 85 -3 14 -7 39 -10 55 -3 17 -7 41 -10 55 -3 14 -7
39 -10 55 -7 50 -63 259 -83 311 -21 54 -28 75 -31 86 -3 9 -61 122 -82 157
-14 24 -44 62 -84 105 -44 46 -234 166 -265 166 -4 0 -23 6 -41 14 -19 8 -37
15 -41 16 -4 0 -38 12 -74 25 -37 13 -69 24 -73 23 -3 0 -8 1 -11 2 -5 2 -18
5 -55 14 -54 12 -225 45 -260 49 -22 3 -49 8 -60 10 -46 11 -479 42 -522 38
-19 -2 -36 -2 -98 0 -31 1 -58 -1 -61 -4 -4 -3 -16 -2 -29 3 -13 5 -25 7 -27
4z"/>
</g>
</svg>
